<?xml version="1.0" encoding="utf-8"?>
<!-- Generator: Adobe Illustrator 18.1.0, SVG Export Plug-In . SVG Version: 6.00 Build 0)  -->
<!DOCTYPE svg PUBLIC "-//W3C//DTD SVG 1.1//EN" "http://www.w3.org/Graphics/SVG/1.1/DTD/svg11.dtd">
<svg version="1.1" id="Layer_1" xmlns="http://www.w3.org/2000/svg" xmlns:xlink="http://www.w3.org/1999/xlink" x="0px" y="0px"
	 viewBox="0 0 500 493.8" style="enable-background:new 0 0 500 493.8;" xml:space="preserve">
<style type="text/css">
	.st0{fill:#BC9D6D;}
</style>
<g id="Your_Icon_2_">
	<path class="st0" d="M85.5,483.8c5.8,0.5,10.9-3.5,12-9c-0.5,6.2,4,11.6,10.2,12.2c6.2,0.6,11.7-4,12.2-10.2
		c0.6-6.6,2.2-23.4,2.9-29.5c0.1,0,0.3,0,0.5,0c40.1,3.3,85.4-26.6,94.3-90c3.9-27.4-3.2-54.8-19.8-76.9
		c-11.3-15-26.2-26.4-43.2-33.4c1.2-2.5,2.2-5.1,2.6-8c1-7.3-0.8-14.5-5.2-20.3c-4.4-5.8-10.8-9.6-18.1-10.6
		c-13.5-1.9-26.5,6.5-30.2,19.6c-0.3,1.2-0.6,2.4-0.8,3.7c-0.4,2.8-0.2,5.7,0.2,8.4c-3,0.3-5.9,0.8-8.8,1.4l-7.2-19.5
		c7.2-5.1,12.7-12.4,15.3-21.3c1.2-4.3,1.7-8.8,1.4-13.3l-3.3-49.7c-0.3-4.6-1.4-9.1-3.3-13.2L124,102c0.6,0.3,1.2,0.7,1.9,1
		c9.4,4.6,20.1,5.3,30,2l47.2-16c12.2-4.2,21.6-14.1,25.2-26.5c0-0.1,0-0.1,0-0.2l23.4-0.5c3.8,9.6,11.4,17.6,21.5,21.8l46.1,19
		c9.6,3.9,20.1,4,29.6,0.1l10.4,13.1c-2.2,3.3-3.9,6.9-5,10.8c-1.5,5.2-1.9,10.7-1.1,16.1l6.8,49.4c2,14.8,12.1,26.5,25.1,31.4
		l-0.6,16.4c-34.6,1.1-67.9,19.4-86.6,51.5c-5.9,10.2-10.2,20.3-12.9,30c-12.4,43.4,4.1,81,31.5,99.1c0.1,0.1,0.3,0.2,0.4,0.3
		c-3.2,5.3-12.3,19.7-15.8,25.3c-3.3,5.3-1.8,12.2,3.5,15.5c5.3,3.3,12.2,1.8,15.5-3.5l0,0c-0.4,0.7-0.8,1.4-1,2.2
		c-1.3,4.7,0.5,9.9,4.8,12.6c5.3,3.3,12.2,1.8,15.5-3.5c1.4-2.1,12.5-19.7,16.3-26c0.2,0,0.3,0.1,0.5,0.2
		c35.9,18.1,89.1,7.5,121.3-47.9c24.2-41.7,15.9-93.4-16.9-125.9c2.1-1.9,3.9-4,5.4-6.5c1.1-2,2-4.1,2.7-6.2
		c3.4-12.1-1.7-24.9-12.6-31.2c-13.1-7.6-29.9-3.1-37.5,10c-1.1,2-2,4.1-2.7,6.2c-0.2,0.5-0.2,1.1-0.3,1.6c-2.9-0.8-5.7-1.5-8.6-2
		l0.6-16.6c14-3.1,25.3-13.6,29.3-27.5c1.5-5.2,1.9-10.7,1.1-16.1l-6.8-49.4c-2.9-21.5-22.8-36.6-44.3-33.6c-3.6,0.5-7,1.5-10.2,2.9
		l-10-12.7c1.6-2.3,3-4.8,4.1-7.5c8.3-20.3-1.5-43.2-21.4-51.3l-46.1-19c-9.7-4-20.4-4-30.1,0.1c-9.7,4-17.2,11.6-21.2,21.3
		c-0.6,1.4-1.1,2.8-1.5,4.2c-0.3,1-0.5,1.9-0.7,2.9l-21.8,0.4c-0.1-0.2-0.1-0.5-0.2-0.7c-3.4-9.9-10.4-18-19.9-22.6
		c-9.4-4.6-20.1-5.3-30-1.9l-47.2,16.1c-12.2,4.2-21.6,14.1-25.2,26.5c-2.2,7.7-2,15.8,0.6,23.4c0.6,1.9,1.4,3.6,2.3,5.3l-25.5,21
		c-7.1-4.6-15.4-6.9-24-6.3c-16.5,1.1-30.7,12.5-35.3,28.5c-1.2,4.3-1.7,8.8-1.4,13.3l3.2,49.7c1.4,21.2,19.4,37.4,40.5,36.7l7,19.1
		C45.3,260.1,23.6,284,15,314.2c-1.3,4.5-2.3,9.2-3,14c-9,63.5,26.3,104.7,65.8,112.6c0.2,0,0.4,0.1,0.5,0.2
		c-0.9,7.4-2.8,28.1-3,30.6C74.7,477.8,79.3,483.2,85.5,483.8z M458,384.3c-19.1,32.8-56.7,56.8-91.6,39.1
		c-10.7-5.4-23.4-2.4-29,6.8c5.2-9.5,1.6-22-8.4-28.6c-32.7-21.6-30.6-66.1-11.5-99c22.5-38.8,72.3-52,111.1-29.5
		C467.2,295.7,480.5,345.5,458,384.3z M438,247c1.4-2.3,4.4-3.1,6.7-1.8c1.9,1.1,2.9,3.4,2.3,5.6c-0.1,0.4-0.3,0.8-0.5,1.1
		c-1.4,2.3-4.4,3.1-6.7,1.8c0,0,0,0,0,0c0,0,0,0,0,0C437.5,252.4,436.6,249.3,438,247z M408.8,135.1l6.8,49.4
		c0.3,2.3,0.2,4.6-0.5,6.9c-1.1,3.9-3.6,7.1-6.8,9.3l0.5-16c0.2-6.2-4.7-11.4-10.9-11.6c-5.3-0.2-9.8,3.3-11.2,8.2
		c-0.2,0.9-0.4,1.8-0.4,2.7l-0.5,13.4c-1.9-2.3-3.2-5.1-3.7-8.3l-6.8-49.4c-0.2-1.2-0.2-2.3-0.1-3.5l7.8,9.8
		c3.8,4.9,10.9,5.7,15.8,1.9c4.9-3.8,5.7-10.9,1.9-15.8l-9-11.4C400.2,120.4,407.6,126.5,408.8,135.1z M281.7,31.6
		c4.2-1.7,8.7-1.7,12.9,0l46.1,19c7.3,3,11.3,10.5,10.2,18.1l-5.4-6.9c-3.8-4.9-10.9-5.7-15.8-1.9c-1.9,1.5-3.2,3.6-3.9,5.7
		c-1,3.4-0.3,7.1,2,10.1l5.6,7.2c-1.9-0.1-3.7-0.5-5.5-1.2l-46.1-19c-1-0.4-1.9-0.9-2.8-1.5l8.5-0.2c6.2-0.1,11.1-5.3,11-11.5
		c-0.1-6.2-5.3-11.2-11.5-11l-13.3,0.3C275.5,35.6,278.2,33.1,281.7,31.6z M137.8,51.8L185,35.8c4.3-1.5,8.8-1.2,12.8,0.8
		c1.9,0.9,3.5,2.2,4.9,3.7l-8.9,0.2c-5.1,0.1-9.3,3.5-10.6,8.2c-0.3,1-0.4,2.2-0.4,3.3c0.1,6.2,5.3,11.2,11.5,11l8.7-0.2
		c-1.9,2.2-4.3,3.9-7.2,4.9l-47.2,16c-1.1,0.4-2.2,0.6-3.3,0.8l8.2-6.7c4.8-3.9,5.5-11.1,1.5-15.8c-4-4.8-11-5.5-15.8-1.5
		l-12.5,10.3C125.4,62.7,130.2,54.4,137.8,51.8z M47.8,190.5l-3.2-49.7c-0.6-9.1,6.7-17.3,15.7-17.9c0.9-0.1,1.9,0,2.8,0.1l-7.6,6.2
		c-1.8,1.5-3.1,3.5-3.7,5.6c-1,3.4-0.3,7.3,2.1,10.3c4,4.8,11,5.5,15.8,1.5l8.4-6.9l3.2,48.6c0.1,1.9-0.1,3.9-0.6,5.7
		c-0.5,1.6-1.2,3.1-2,4.5l-4-10.9c-2.1-5.8-8.6-8.8-14.4-6.7c-3.5,1.3-6,4.1-7,7.5c-0.6,2.2-0.6,4.6,0.3,7l3.3,9
		C51.8,201.7,48.2,196.6,47.8,190.5z M126.1,238c-0.5-0.6-1.2-1.9-0.9-3.6c0.3-2.7,2.9-4.5,5.5-4.2c1.8,0.2,2.8,1.3,3.2,1.9
		c0.5,0.6,1.2,1.9,0.9,3.6c0,0.2-0.1,0.5-0.1,0.7c-0.7,2.3-3,3.8-5.4,3.5l0,0c0,0,0,0,0,0C127.6,239.6,126.6,238.6,126.1,238z
		 M34.3,331.3c6.3-44.4,47.5-75.4,91.8-69.1c21.5,3,40.5,14.3,53.6,31.6c13.1,17.3,18.6,38.7,15.5,60.2c-7,49.7-40.6,73.2-70.2,70.8
		c-11.9-1-22.4,6.5-24.3,17.2c1.2-10.7-6.8-20.9-18.6-23.3C43.8,411,29,368.9,34.3,331.3z"/>
</g>
<g>
</g>
<g>
</g>
<g>
</g>
<g>
</g>
<g>
</g>
<g>
</g>
</svg>
