<?xml version="1.0" encoding="utf-8"?>
<!-- Generator: Adobe Illustrator 18.1.0, SVG Export Plug-In . SVG Version: 6.00 Build 0)  -->
<!DOCTYPE svg PUBLIC "-//W3C//DTD SVG 1.1//EN" "http://www.w3.org/Graphics/SVG/1.1/DTD/svg11.dtd">
<svg version="1.1" id="Layer_1" xmlns="http://www.w3.org/2000/svg" xmlns:xlink="http://www.w3.org/1999/xlink" x="0px" y="0px"
	 viewBox="0 0 612 343.2" style="enable-background:new 0 0 612 343.2;" xml:space="preserve">
<style type="text/css">
	.st0{fill:#BC9D6D;}
</style>
<g>
	<path class="st0" d="M460.8,199.7C460.9,199.7,460.9,199.7,460.8,199.7c28.9-8.7,58.8-20.4,87.5-36.1c46.1-26.8,69.6,1,52.5,43.1
		c-14.6,39.8-92.1,114-159.6,130.9c-25.9-18.3-76.7-30.8-135.3-31c-58.6,0.2-109.4,12.7-135.3,31c-67.6-16.9-145.1-91-159.6-130.9
		c-17.1-42.1,6.5-69.9,52.5-43.1c28.8,15.7,58.7,27.4,87.5,36.1C213,218.4,269.7,223,299.4,223l16.3,0
		C345.4,222.7,400.7,217.8,460.8,199.7z"/>
	<g id="XMLID_1_">
		<path class="st0" d="M377.4,12.4c24.1,12.1,63.3,125.3,78.5,171.8c-58.2,16.9-111.3,21.5-140.1,21.8l-16.3,0
			c-28.9,0-83.4-4.4-143.3-21.8c15.2-46.4,54.4-159.8,78.5-171.9c27.6-13.8,51.3,9,70.4,11.3h-3.7c1.5,0.2,3.1,0.2,4.6,0.1
			c1.6,0.1,3.1,0.1,4.6-0.1H307C326.1,21.5,349.7-1.4,377.4,12.4z M368,100.4c0-5-4.1-9.1-9.1-9.1c-4.6,0-8.4,3.4-9,7.9l-28-4.1
			l-12.4-25c3.3-1.4,5.7-4.6,5.7-8.4c0-5-4.1-9.1-9.1-9.1s-9.1,4.1-9.1,9.1c0,3.8,2.4,7.1,5.8,8.5l-12.3,25l-28.1,4.1
			c-0.6-4.5-4.4-7.9-9-7.9c-5,0-9.1,4.1-9.1,9.1c0,5,4.1,9.1,9.1,9.1c3.1,0,5.8-1.5,7.5-3.9l20,19.5l-5,29.2
			c-1.1-0.5-2.3-0.8-3.6-0.8c-5,0-9.1,4.1-9.1,9.1s4.1,9.1,9.1,9.1c5,0,9.1-4.1,9.1-9.1c0-1.9-0.6-3.6-1.6-5.1l26.6-14l26.5,14
			c-1,1.5-1.6,3.2-1.6,5.1c0,5,4.1,9.1,9.1,9.1c5,0,9.1-4.1,9.1-9.1c0-5-4.1-9.1-9.1-9.1c-1.3,0-2.4,0.3-3.5,0.7l-5-29.2l19.9-19.4
			c1.6,2.3,4.4,3.9,7.4,3.9C363.9,109.5,368,105.4,368,100.4z"/>
	</g>
</g>
<g>
</g>
<g>
</g>
<g>
</g>
<g>
</g>
<g>
</g>
<g>
</g>
</svg>
